<svg width="16" height="14" viewBox="0 0 16 14" fill="none" xmlns="http://www.w3.org/2000/svg">
<g clip-path="url(#clip0_76_53)">
<path d="M0.514267 0H16V14.1448H0V0H0.514267ZM11.4958 16.7498H10.5075V16.4463C10.5075 16.2553 10.4987 16.1351 10.4795 16.0874C10.4603 16.0381 10.4165 16.015 10.3483 16.015C10.2888 16.015 10.2486 16.035 10.2259 16.0766C10.2049 16.1182 10.1944 16.2245 10.1944 16.3939V17.9976C10.1944 18.147 10.2049 18.2456 10.2259 18.2934C10.2486 18.3411 10.2906 18.3642 10.3536 18.3642C10.4235 18.3642 10.4708 18.338 10.497 18.2841C10.5215 18.2302 10.5337 18.1254 10.5337 17.9699V17.5739H10.3413V17.0671H11.4923V18.8587H10.8713L10.7804 18.6199C10.7139 18.7232 10.6282 18.8002 10.5267 18.8526C10.4253 18.9049 10.3028 18.9311 10.1646 18.9311C9.99847 18.9311 9.84454 18.8957 9.69936 18.8248C9.55592 18.754 9.44572 18.6662 9.3705 18.5614C9.29529 18.4566 9.24981 18.3473 9.23057 18.2333C9.21308 18.1177 9.20258 17.9452 9.20258 17.7157V16.7221C9.20258 16.4032 9.22182 16.1706 9.2603 16.0273C9.29879 15.8825 9.41249 15.75 9.59615 15.6298C9.78157 15.5097 10.0195 15.4496 10.3133 15.4496C10.6019 15.4496 10.8416 15.502 11.0323 15.6067C11.2229 15.7115 11.3471 15.8363 11.4048 15.9795C11.4626 16.1243 11.4905 16.3323 11.4905 16.6065V16.7498H11.4958ZM7.24172 15.5158H8.88772V16.1829H8.23002V16.8206H8.84399V17.4538H8.23002V18.1886H8.95419V18.8556H7.24172V15.5158ZM7.07205 15.5158L6.57177 18.8587H5.07795L4.50596 15.5158H5.54674C5.66393 16.4371 5.74964 17.2181 5.80387 17.8543C5.85635 17.2104 5.91057 16.6373 5.96655 16.1382L6.03127 15.5143H7.07205V15.5158ZM7.99913 3.07482C10.5057 3.07482 12.5383 4.86488 12.5383 7.0724C12.5383 9.27993 10.5057 11.0684 7.99913 11.0684C5.49251 11.0684 3.45993 9.27839 3.45993 7.0724C3.46168 4.86488 5.49251 3.07482 7.99913 3.07482ZM14.9715 0.90581H1.02853V13.239H14.9715V0.90581Z" fill="#830000"/>
</g>
<defs>
<clipPath id="clip0_76_53">
<rect width="16" height="14" fill="white"/>
</clipPath>
</defs>
</svg>
